<?xml version="1.0" encoding="iso-8859-1"?>
<!-- Generator: Adobe Illustrator 19.0.0, SVG Export Plug-In . SVG Version: 6.00 Build 0)  -->
<svg version="1.1" id="Capa_1" xmlns="http://www.w3.org/2000/svg" xmlns:xlink="http://www.w3.org/1999/xlink" x="0px" y="0px"
	 viewBox="0 0 470.003 470.003" style="enable-background:new 0 0 470.003 470.003;" xml:space="preserve">
<g>
	<path style="fill:#6F362D;" d="M290.473,370.569c0-30.587-24.884-55.472-55.471-55.472s-55.471,24.884-55.471,55.472v64.433
		h110.942V370.569z"/>
	<polygon style="fill:#E63A2A;" points="164.53,378.069 81.796,378.069 52.875,435.002 164.53,435.002 	"/>
	<path style="fill:#E63A2A;" d="M388.207,378.069h-40.234c-4.141,0-7.498-3.356-7.5-7.497h-15c-0.002,4.141-3.359,7.497-7.5,7.497
		h-12.5v56.933h111.655L388.207,378.069z"/>
	<path style="fill:#E63A2A;" d="M195.196,192.403c0,4.142-3.358,7.5-7.5,7.5H172.3l-9.07,17.854l32.164,16.243l36.221-18.292
		c2.126-1.073,4.635-1.073,6.761,0l36.227,18.293l32.169-16.244l-9.07-17.854h-80.007c-4.142,0-7.5-3.358-7.5-7.5
		C210.196,192.402,195.196,192.402,195.196,192.403z"/>
	<path style="fill:#F59B45;" d="M340.473,370.569c0-4.142,3.358-7.5,7.5-7.5h32.615l-67.022-131.937l-35.582,17.967
		c-1.063,0.537-2.222,0.805-3.38,0.805s-2.318-0.269-3.381-0.805l-36.227-18.293l-36.221,18.293c-2.125,1.074-4.635,1.074-6.762,0
		l-35.577-17.967L89.416,363.069h75.518c3.757-35.345,33.744-62.972,70.068-62.972s66.311,27.627,70.068,62.972h12.903
		c4.142,0,7.5,3.358,7.5,7.5C325.473,370.572,340.473,370.572,340.473,370.569z"/>
	<path style="fill:#E3C498;" d="M179.92,184.903h7.776c4.142,0,7.499,3.357,7.5,7.499h15c0.001-4.141,3.358-7.499,7.5-7.499h72.387
		L235.002,76.47L179.92,184.903z"/>
	<path style="fill:#34150C;" d="M446.196,459.105L243.414,59.911l24.897-49.012c1.876-3.693,0.403-8.207-3.29-10.083
		c-3.694-1.876-8.208-0.403-10.083,3.29l-19.936,39.246L215.066,4.105c-1.875-3.693-6.391-5.167-10.083-3.29
		c-3.693,1.876-5.166,6.39-3.29,10.083l24.897,49.012l-65.482,128.906c-0.01,0.018-0.019,0.038-0.028,0.056L23.807,459.105
		c-1.876,3.693-0.403,8.207,3.29,10.083c1.088,0.553,2.248,0.815,3.391,0.815c2.734,0,5.37-1.5,6.692-4.105l8.075-15.896H164.53
		v12.5c0,4.142,3.358,7.5,7.5,7.5s7.5-3.358,7.5-7.5v-12.5h110.942v12.5c0,4.142,3.358,7.5,7.5,7.5s7.5-3.358,7.5-7.5v-12.5h119.275
		l8.075,15.896c1.323,2.605,3.958,4.105,6.692,4.105c1.143,0,2.303-0.262,3.391-0.815
		C446.599,467.312,448.072,462.798,446.196,459.105z M217.696,184.903c-4.142,0-7.499,3.357-7.5,7.499
		c0,4.144,3.358,7.501,7.5,7.501h80.007l9.07,17.854l-32.169,16.244l-36.227-18.293c-2.126-1.073-4.635-1.073-6.761,0
		l-36.221,18.292l-32.164-16.243l9.07-17.854h15.396c4.142,0,7.5-3.358,7.5-7.5c-0.001-4.143-3.358-7.5-7.5-7.5h-7.776
		L235.002,76.47l55.082,108.433H217.696z M81.796,378.069h82.734v56.933H52.875L81.796,378.069z M179.53,370.569
		c0-30.587,24.884-55.472,55.471-55.472s55.471,24.884,55.471,55.472v64.433H179.53V370.569z M305.473,378.069h12.5
		c4.141,0,7.498-3.356,7.5-7.497c0-4.145-3.358-7.503-7.5-7.503h-12.903c-3.757-35.345-33.744-62.972-70.068-62.972
		s-66.311,27.627-70.068,62.972H89.416l67.021-131.937l35.577,17.967c2.126,1.074,4.636,1.074,6.762,0l36.221-18.293l36.227,18.293
		c1.063,0.537,2.222,0.805,3.381,0.805s2.318-0.269,3.38-0.805l35.582-17.967l67.022,131.937h-32.615c-4.142,0-7.5,3.358-7.5,7.5
		c0.002,4.144,3.359,7.5,7.5,7.5h40.234l28.921,56.933H305.473V378.069z"/>
</g>
<g>
</g>
<g>
</g>
<g>
</g>
<g>
</g>
<g>
</g>
<g>
</g>
<g>
</g>
<g>
</g>
<g>
</g>
<g>
</g>
<g>
</g>
<g>
</g>
<g>
</g>
<g>
</g>
<g>
</g>
</svg>
